<?xml version="1.0" standalone="no"?>
<!DOCTYPE svg PUBLIC "-//W3C//DTD SVG 20010904//EN"
 "http://www.w3.org/TR/2001/REC-SVG-20010904/DTD/svg10.dtd">
<svg version="1.0" xmlns="http://www.w3.org/2000/svg"
 width="482.000000pt" height="151.000000pt" viewBox="0 0 482.000000 151.000000"
 preserveAspectRatio="xMidYMid meet">

<g transform="translate(0.000000,151.000000) scale(0.100000,-0.100000)"
fill="#000000" stroke="none">
<path d="M450 760 l0 -270 153 0 c168 0 219 13 252 64 41 62 24 158 -34 192
l-31 18 31 33 c44 44 51 113 17 163 -36 53 -94 69 -255 70 l-133 0 0 -270z
m292 163 c29 -30 26 -72 -6 -100 -23 -20 -38 -23 -107 -23 l-79 0 0 68 c0 38
3 72 8 76 4 5 42 6 85 4 62 -4 83 -9 99 -25z m1 -214 c30 -16 37 -28 37 -66 0
-54 -36 -73 -141 -73 l-89 0 0 75 0 75 86 0 c47 0 95 -5 107 -11z"/>
<path d="M1830 990 l0 -40 99 0 c55 0 102 -4 105 -9 3 -5 -41 -91 -99 -192
-82 -144 -105 -192 -105 -221 l0 -38 210 0 c116 0 213 0 218 0 4 0 8 18 10 40
l3 40 -94 0 c-51 0 -97 3 -100 6 -4 4 36 91 88 193 70 137 95 196 95 224 l0
37 -215 0 -215 0 0 -40z m348 -53 c-2 -8 -48 -93 -102 -190 -84 -150 -103
-177 -123 -177 -13 0 -23 4 -23 10 0 11 181 332 200 355 16 19 53 20 48 2z"/>
<path d="M3997 1023 c-8 -7 -10 -527 -3 -534 3 -2 25 -3 50 -1 l46 4 0 94 0
94 73 0 72 0 43 -94 44 -94 49 -4 c33 -2 49 1 49 9 0 6 -20 55 -45 107 l-44
96 39 25 c49 31 70 70 70 130 0 83 -40 134 -124 160 -51 15 -306 22 -319 8z
m151 -158 c18 -41 32 -79 32 -85 0 -5 -20 -10 -45 -10 l-45 0 0 85 c0 108 15
111 58 10z m167 50 c33 -32 34 -86 3 -117 l-22 -22 -32 69 c-18 39 -33 76 -33
83 -2 22 58 14 84 -13z"/>
<path d="M1257 878 c-181 -308 -217 -370 -217 -381 0 -9 80 -12 310 -12 171 0
310 4 310 8 0 4 -38 72 -84 150 -46 78 -95 160 -108 183 -72 126 -114 194
-120 194 -4 0 -45 -64 -91 -142z m172 -164 c40 -68 72 -127 69 -129 -2 -2 -71
-5 -153 -5 -120 -1 -149 1 -147 12 5 21 142 248 150 248 4 0 40 -57 81 -126z"/>
<path d="M2719 992 c-9 -15 -77 -132 -152 -260 -75 -128 -137 -235 -137 -237
0 -3 140 -5 310 -5 187 0 310 4 310 9 0 14 -296 515 -306 518 -5 2 -16 -9 -25
-25z m105 -279 c42 -70 74 -128 73 -130 -2 -1 -70 -3 -152 -3 -125 -1 -150 1
-149 13 2 19 137 247 146 247 4 0 41 -57 82 -127z"/>
<path d="M3342 758 c-84 -143 -151 -262 -149 -265 2 -2 144 -2 315 -1 l311 3
-129 220 c-183 312 -179 305 -187 305 -5 0 -77 -118 -161 -262z m245 -46 l71
-127 -146 -5 c-81 -3 -151 -2 -155 1 -10 8 134 259 148 259 6 -1 42 -58 82
-128z"/>
</g>
</svg>
